<svg width="122" height="60" viewBox="0 0 122 60" fill="none" xmlns="http://www.w3.org/2000/svg">
<ellipse cx="30.3054" cy="20.9397" rx="1.27222" ry="1.27222" fill="#0E31E7" style="fill:#0E31E7;fill:color(display-p3 0.0538 0.1904 0.9077);fill-opacity:1;"/>
<circle cx="33.552" cy="18.0569" r="1.59962" transform="rotate(-15.7543 33.552 18.0569)" fill="#0E31E7" style="fill:#0E31E7;fill:color(display-p3 0.0538 0.1904 0.9077);fill-opacity:1;"/>
<ellipse cx="38.0975" cy="16.5904" rx="1.93962" ry="1.93962" transform="rotate(-15.7543 38.0975 16.5904)" fill="#0E31E7" style="fill:#0E31E7;fill:color(display-p3 0.0538 0.1904 0.9077);fill-opacity:1;"/>
<ellipse cx="43.2466" cy="17.09" rx="2.08893" ry="2.08893" transform="rotate(-15.7543 43.2466 17.09)" fill="#0E31E7" style="fill:#0E31E7;fill:color(display-p3 0.0538 0.1904 0.9077);fill-opacity:1;"/>
<circle cx="48.2704" cy="19.5884" r="2.21662" transform="rotate(-15.7543 48.2704 19.5884)" fill="#0E31E7" style="fill:#0E31E7;fill:color(display-p3 0.0538 0.1904 0.9077);fill-opacity:1;"/>
<ellipse cx="25.4876" cy="21.85" rx="1.27222" ry="1.27222" transform="rotate(-32.7273 25.4876 21.85)" fill="#1280E5" style="fill:#1280E5;fill:color(display-p3 0.0719 0.5008 0.8966);fill-opacity:1;"/>
<circle cx="26.6594" cy="17.6698" r="1.59962" transform="rotate(-48.4815 26.6594 17.6698)" fill="#1280E5" style="fill:#1280E5;fill:color(display-p3 0.0719 0.5008 0.8966);fill-opacity:1;"/>
<ellipse cx="29.6911" cy="13.9784" rx="1.93962" ry="1.93962" transform="rotate(-48.4815 29.6911 13.9784)" fill="#1280E5" style="fill:#1280E5;fill:color(display-p3 0.0719 0.5008 0.8966);fill-opacity:1;"/>
<ellipse cx="34.2925" cy="11.6148" rx="2.08893" ry="2.08893" transform="rotate(-48.4815 34.2925 11.6148)" fill="#1280E5" style="fill:#1280E5;fill:color(display-p3 0.0719 0.5008 0.8966);fill-opacity:1;"/>
<circle cx="39.8692" cy="11.0008" r="2.21662" transform="rotate(-48.4815 39.8692 11.0008)" fill="#1280E5" style="fill:#1280E5;fill:color(display-p3 0.0719 0.5008 0.8966);fill-opacity:1;"/>
<ellipse cx="22.0343" cy="25.9568" rx="1.27222" ry="1.27222" transform="rotate(-65.46 22.0343 25.9568)" fill="#2EBDD0" style="fill:#2EBDD0;fill:color(display-p3 0.1816 0.7400 0.8161);fill-opacity:1;"/>
<circle cx="20.7597" cy="21.8068" r="1.59962" transform="rotate(-81.2143 20.7597 21.8068)" fill="#2EBDD0" style="fill:#2EBDD0;fill:color(display-p3 0.1816 0.7400 0.8161);fill-opacity:1;"/>
<ellipse cx="21.3137" cy="17.0625" rx="1.93962" ry="1.93962" transform="rotate(-81.2143 21.3137 17.0625)" fill="#2EBDD0" style="fill:#2EBDD0;fill:color(display-p3 0.1816 0.7400 0.8161);fill-opacity:1;"/>
<ellipse cx="23.9069" cy="12.5857" rx="2.08893" ry="2.08893" transform="rotate(-81.2143 23.9069 12.5857)" fill="#2EBDD0" style="fill:#2EBDD0;fill:color(display-p3 0.1816 0.7400 0.8161);fill-opacity:1;"/>
<circle cx="28.2655" cy="9.05372" r="2.21662" transform="rotate(-81.2143 28.2655 9.05372)" fill="#2EBDD0" style="fill:#2EBDD0;fill:color(display-p3 0.1816 0.7400 0.8161);fill-opacity:1;"/>
<ellipse cx="21.3817" cy="30.4323" rx="1.27222" ry="1.27222" transform="rotate(-98.19 21.3817 30.4323)" fill="#3EC1A2" style="fill:#3EC1A2;fill:color(display-p3 0.2431 0.7569 0.6336);fill-opacity:1;"/>
<circle cx="18.0657" cy="27.63" r="1.59962" transform="rotate(-113.944 18.0657 27.63)" fill="#3EC1A2" style="fill:#3EC1A2;fill:color(display-p3 0.2431 0.7569 0.6336);fill-opacity:1;"/>
<ellipse cx="15.967" cy="23.3398" rx="1.93962" ry="1.93962" transform="rotate(-113.944 15.967 23.3398)" fill="#3EC1A2" style="fill:#3EC1A2;fill:color(display-p3 0.2431 0.7569 0.6336);fill-opacity:1;"/>
<ellipse cx="15.7274" cy="18.1715" rx="2.08893" ry="2.08893" transform="rotate(-113.944 15.7274 18.1715)" fill="#3EC1A2" style="fill:#3EC1A2;fill:color(display-p3 0.2431 0.7569 0.6336);fill-opacity:1;"/>
<circle cx="17.4846" cy="12.8436" r="2.21662" transform="rotate(-113.944 17.4846 12.8436)" fill="#3EC1A2" style="fill:#3EC1A2;fill:color(display-p3 0.2431 0.7569 0.6336);fill-opacity:1;"/>
<ellipse cx="23.1514" cy="34.888" rx="1.27222" ry="1.27222" transform="rotate(-130.92 23.1514 34.888)" fill="#3EC15B" style="fill:#3EC15B;fill:color(display-p3 0.2431 0.7569 0.3562);fill-opacity:1;"/>
<circle cx="18.8469" cy="34.3237" r="1.59962" transform="rotate(-146.674 18.8469 34.3237)" fill="#3EC15B" style="fill:#3EC15B;fill:color(display-p3 0.2431 0.7569 0.3562);fill-opacity:1;"/>
<ellipse cx="14.7614" cy="31.8496" rx="1.93962" ry="1.93962" transform="rotate(-146.674 14.7614 31.8496)" fill="#3EC15B" style="fill:#3EC15B;fill:color(display-p3 0.2431 0.7569 0.3562);fill-opacity:1;"/>
<ellipse cx="11.7655" cy="27.6311" rx="2.08893" ry="2.08893" transform="rotate(-146.674 11.7655 27.6311)" fill="#3EC15B" style="fill:#3EC15B;fill:color(display-p3 0.2431 0.7569 0.3562);fill-opacity:1;"/>
<circle cx="10.3637" cy="22.1989" r="2.21662" transform="rotate(-146.674 10.3637 22.1989)" fill="#3EC15B" style="fill:#3EC15B;fill:color(display-p3 0.2431 0.7569 0.3562);fill-opacity:1;"/>
<ellipse cx="26.4977" cy="37.4865" rx="1.27222" ry="1.27222" transform="rotate(-163.65 26.4977 37.4865)" fill="#C4C739" style="fill:#C4C739;fill:color(display-p3 0.7675 0.7786 0.2232);fill-opacity:1;"/>
<circle cx="22.5714" cy="39.3389" r="1.59962" transform="rotate(-179.404 22.5714 39.3389)" fill="#C4C739" style="fill:#C4C739;fill:color(display-p3 0.7675 0.7786 0.2232);fill-opacity:1;"/>
<ellipse cx="17.7974" cy="39.4666" rx="1.93962" ry="1.93962" transform="rotate(-179.404 17.7974 39.4666)" fill="#C4C739" style="fill:#C4C739;fill:color(display-p3 0.7675 0.7786 0.2232);fill-opacity:1;"/>
<ellipse cx="12.9964" cy="37.5377" rx="2.08893" ry="2.08893" transform="rotate(-179.404 12.9964 37.5377)" fill="#C4C739" style="fill:#C4C739;fill:color(display-p3 0.7675 0.7786 0.2232);fill-opacity:1;"/>
<circle cx="8.87979" cy="33.726" r="2.21662" transform="rotate(-179.404 8.87979 33.726)" fill="#C4C739" style="fill:#C4C739;fill:color(display-p3 0.7675 0.7786 0.2232);fill-opacity:1;"/>
<ellipse cx="31.6775" cy="37.7962" rx="1.27222" ry="1.27222" transform="rotate(163.62 31.6775 37.7962)" fill="#F4AB1C" style="fill:#F4AB1C;fill:color(display-p3 0.9569 0.6706 0.1098);fill-opacity:1;"/>
<circle cx="29.3756" cy="41.4777" r="1.59962" transform="rotate(147.866 29.3756 41.4777)" fill="#F4AB1C" style="fill:#F4AB1C;fill:color(display-p3 0.9569 0.6706 0.1098);fill-opacity:1;"/>
<ellipse cx="25.4284" cy="44.1666" rx="1.93962" ry="1.93962" transform="rotate(147.866 25.4284 44.1666)" fill="#F4AB1C" style="fill:#F4AB1C;fill:color(display-p3 0.9569 0.6706 0.1098);fill-opacity:1;"/>
<ellipse cx="20.3465" cy="45.1393" rx="2.08893" ry="2.08893" transform="rotate(147.866 20.3465 45.1393)" fill="#F4AB1C" style="fill:#F4AB1C;fill:color(display-p3 0.9569 0.6706 0.1098);fill-opacity:1;"/>
<circle cx="14.8228" cy="44.1589" r="2.21662" transform="rotate(147.866 14.8228 44.1589)" fill="#F4AB1C" style="fill:#F4AB1C;fill:color(display-p3 0.9569 0.6706 0.1098);fill-opacity:1;"/>
<ellipse cx="36.3998" cy="35.2039" rx="1.27222" ry="1.27222" transform="rotate(130.89 36.3998 35.2039)" fill="#FF6726" style="fill:#FF6726;fill:color(display-p3 1.0000 0.4037 0.1482);fill-opacity:1;"/>
<circle cx="36.4544" cy="39.5453" r="1.59962" transform="rotate(115.136 36.4544 39.5453)" fill="#FF6726" style="fill:#FF6726;fill:color(display-p3 1.0000 0.4037 0.1482);fill-opacity:1;"/>
<ellipse cx="34.5872" cy="43.9413" rx="1.93962" ry="1.93962" transform="rotate(115.136 34.5872 43.9413)" fill="#FF6726" style="fill:#FF6726;fill:color(display-p3 1.0000 0.4037 0.1482);fill-opacity:1;"/>
<ellipse cx="30.8388" cy="47.5072" rx="2.08893" ry="2.08893" transform="rotate(115.136 30.8388 47.5072)" fill="#FF6726" style="fill:#FF6726;fill:color(display-p3 1.0000 0.4037 0.1482);fill-opacity:1;"/>
<circle cx="25.6621" cy="49.6692" r="2.21662" transform="rotate(115.136 25.6621 49.6692)" fill="#FF6726" style="fill:#FF6726;fill:color(display-p3 1.0000 0.4037 0.1482);fill-opacity:1;"/>
<ellipse cx="38.481" cy="31.088" rx="1.27222" ry="1.27222" transform="rotate(98.16 38.481 31.088)" fill="#E23A77" style="fill:#E23A77;fill:color(display-p3 0.8872 0.2289 0.4659);fill-opacity:1;"/>
<circle cx="40.8739" cy="34.7106" r="1.59962" transform="rotate(82.4057 40.8739 34.7106)" fill="#E23A77" style="fill:#E23A77;fill:color(display-p3 0.8872 0.2289 0.4659);fill-opacity:1;"/>
<ellipse cx="41.6804" cy="39.4182" rx="1.93962" ry="1.93962" transform="rotate(82.4057 41.6804 39.4182)" fill="#E23A77" style="fill:#E23A77;fill:color(display-p3 0.8872 0.2289 0.4659);fill-opacity:1;"/>
<ellipse cx="40.4555" cy="44.4448" rx="2.08893" ry="2.08893" transform="rotate(82.4057 40.4555 44.4448)" fill="#E23A77" style="fill:#E23A77;fill:color(display-p3 0.8872 0.2289 0.4659);fill-opacity:1;"/>
<circle cx="37.2686" cy="49.0626" r="2.21662" transform="rotate(82.4057 37.2686 49.0626)" fill="#E23A77" style="fill:#E23A77;fill:color(display-p3 0.8872 0.2289 0.4659);fill-opacity:1;"/>
<ellipse cx="37.9286" cy="26.1494" rx="1.27222" ry="1.27222" transform="rotate(65.43 37.9286 26.1494)" fill="#902687" style="fill:#902687;fill:color(display-p3 0.5647 0.1490 0.5294);fill-opacity:1;"/>
<circle cx="41.8996" cy="27.9026" r="1.59962" transform="rotate(49.6757 41.8996 27.9026)" fill="#902687" style="fill:#902687;fill:color(display-p3 0.5647 0.1490 0.5294);fill-opacity:1;"/>
<ellipse cx="45.1241" cy="31.427" rx="1.93962" ry="1.93962" transform="rotate(49.6757 45.1241 31.427)" fill="#902687" style="fill:#902687;fill:color(display-p3 0.5647 0.1490 0.5294);fill-opacity:1;"/>
<ellipse cx="46.8109" cy="36.3179" rx="2.08893" ry="2.08893" transform="rotate(49.6757 46.8109 36.3179)" fill="#902687" style="fill:#902687;fill:color(display-p3 0.5647 0.1490 0.5294);fill-opacity:1;"/>
<circle cx="46.6273" cy="41.9254" r="2.21662" transform="rotate(49.6757 46.6273 41.9254)" fill="#902687" style="fill:#902687;fill:color(display-p3 0.5647 0.1490 0.5294);fill-opacity:1;"/>
<ellipse cx="34.8335" cy="22.5709" rx="1.27222" ry="1.27222" transform="rotate(32.7 34.8335 22.5709)" fill="#5600DA" style="fill:#5600DA;fill:color(display-p3 0.3389 0.0000 0.8565);fill-opacity:1;"/>
<circle cx="39.1225" cy="21.8985" r="1.59962" transform="rotate(16.9457 39.1225 21.8985)" fill="#5600DA" style="fill:#5600DA;fill:color(display-p3 0.3389 0.0000 0.8565);fill-opacity:1;"/>
<ellipse cx="43.7403" cy="23.1202" rx="1.93962" ry="1.93962" transform="rotate(16.9457 43.7403 23.1202)" fill="#5600DA" style="fill:#5600DA;fill:color(display-p3 0.3389 0.0000 0.8565);fill-opacity:1;"/>
<ellipse cx="47.8034" cy="26.3227" rx="2.08893" ry="2.08893" transform="rotate(16.9457 47.8034 26.3227)" fill="#5600DA" style="fill:#5600DA;fill:color(display-p3 0.3389 0.0000 0.8565);fill-opacity:1;"/>
<circle cx="50.6804" cy="31.1388" r="2.21662" transform="rotate(16.9457 50.6804 31.1388)" fill="#5600DA" style="fill:#5600DA;fill:color(display-p3 0.3389 0.0000 0.8565);fill-opacity:1;"/>
<path d="M115.999 20.5745V33.8807H111.758V23.9408H106.881V33.8807H102.666V23.9408H100.758V20.5745H102.666V19.5408C102.666 16.413 104.813 14.425 108.074 14.425C108.895 14.425 109.717 14.5841 110.486 14.8757L109.717 18.2154C109.346 18.1359 108.975 18.0564 108.657 18.0564C107.596 18.0564 106.881 18.6661 106.881 19.7263V20.5745H115.999Z" fill="white" style="fill:white;fill-opacity:1;"/>
<path d="M92.6747 14.7961V33.8807H88.4337V32.8204C87.4 33.7481 86.0216 34.2783 84.2987 34.2783C80.7734 34.2783 77.8047 31.4421 77.8047 27.2276C77.8047 23.0396 80.7734 20.1769 84.2987 20.1769C86.0216 20.1769 87.4 20.707 88.4337 21.6348V14.7961H92.6747ZM85.1734 30.6734C86.8963 30.6734 88.4337 29.2951 88.4337 27.2276C88.4337 25.1866 86.8963 23.7818 85.1734 23.7818C83.318 23.7818 81.9662 25.1866 81.9662 27.2276C81.9662 29.2951 83.318 30.6734 85.1734 30.6734Z" fill="white" style="fill:white;fill-opacity:1;"/>
<path d="M76.4744 27.2274V28.3142H66.7201C67.0647 29.9046 68.1514 30.8853 69.5828 30.8853C70.5635 30.8853 71.7033 30.6467 72.4189 29.3479L76.1828 30.1166C75.043 32.9263 72.631 34.2781 69.5828 34.2781C65.7393 34.2781 62.5586 31.4419 62.5586 27.2274C62.5586 23.0394 65.7393 20.1768 69.6093 20.1768C73.3732 20.1768 76.3949 22.8804 76.4744 27.2274ZM69.6093 23.6226C68.4165 23.6226 67.1972 24.3647 66.7996 25.7166H72.2864C71.8888 24.2852 70.8286 23.6226 69.6093 23.6226Z" fill="white" style="fill:white;fill-opacity:1;"/>
<path d="M119.166 29.8106C120.108 29.8106 120.878 30.5296 120.878 31.5311C120.878 32.5241 120.108 33.2431 119.166 33.2431C118.224 33.2431 117.454 32.5241 117.454 31.5311C117.454 30.5296 118.224 29.8106 119.166 29.8106ZM119.166 32.8836C119.911 32.8836 120.51 32.3015 120.51 31.5311C120.51 30.7436 119.911 30.1615 119.166 30.1615C118.438 30.1615 117.831 30.7436 117.831 31.5311C117.831 32.3015 118.438 32.8836 119.166 32.8836ZM119.919 31.223C119.919 31.4626 119.782 31.6509 119.56 31.7365L119.996 32.2587H119.534L119.14 31.7793H118.926V32.2587H118.533V30.7008H119.286C119.68 30.7008 119.919 30.9148 119.919 31.223ZM118.926 31.4455H119.277C119.44 31.4455 119.543 31.3599 119.543 31.2315C119.543 31.1117 119.44 31.0346 119.277 31.0346H118.926V31.4455Z" fill="white" style="fill:white;fill-opacity:1;"/>
<path d="M113.113 44.4303V38.5723H116.963V39.7104H114.436V40.7732H116.57V41.9113H114.436V43.2922H116.963V44.4303H113.113Z" fill="white" style="fill:white;fill-opacity:1;"/>
<path d="M107.754 44.5308C107.146 44.5308 106.627 44.4025 106.197 44.1458C105.768 43.8836 105.438 43.5266 105.21 43.0747C104.987 42.6227 104.875 42.1039 104.875 41.5181C104.875 40.9323 104.984 40.4106 105.201 39.9532C105.425 39.4901 105.751 39.1275 106.181 38.8652C106.61 38.603 107.135 38.4719 107.754 38.4719C108.479 38.4719 109.076 38.656 109.545 39.0243C110.013 39.3869 110.301 39.903 110.407 40.5724H108.959C108.903 40.2879 108.766 40.0675 108.549 39.9113C108.337 39.7551 108.063 39.677 107.729 39.677C107.439 39.677 107.179 39.7467 106.95 39.8862C106.722 40.0201 106.543 40.2237 106.415 40.4971C106.287 40.7649 106.222 41.1052 106.222 41.5181C106.222 41.9198 106.284 42.2573 106.406 42.5307C106.535 42.7985 106.713 43.0021 106.942 43.1416C107.171 43.2755 107.433 43.3424 107.729 43.3424C108.063 43.3424 108.337 43.2727 108.549 43.1332C108.766 42.9882 108.903 42.7845 108.959 42.5223H110.407C110.301 43.1472 110.013 43.6381 109.545 43.9952C109.076 44.3523 108.479 44.5308 107.754 44.5308Z" fill="white" style="fill:white;fill-opacity:1;"/>
<path d="M97.0156 44.4303V38.5723H98.3379L100.84 42.2628V38.5723H102.162V44.4303H100.84L98.3379 40.7565V44.4303H97.0156Z" fill="white" style="fill:white;fill-opacity:1;"/>
<path d="M88.75 44.4303L90.8756 38.5723H92.3903L94.5243 44.4303H93.1268L92.7167 43.2168H90.5409L90.1225 44.4303H88.75ZM90.9091 42.1624H92.3569L91.6204 40.0284L90.9091 42.1624Z" fill="white" style="fill:white;fill-opacity:1;"/>
<path d="M84.918 44.4303V38.5723H86.2402V44.4303H84.918Z" fill="white" style="fill:white;fill-opacity:1;"/>
<path d="M78.4453 44.4303V38.5723H79.7676V43.2838H82.161V44.4303H78.4453Z" fill="white" style="fill:white;fill-opacity:1;"/>
<path d="M71.9844 44.4303V38.5723H73.3066V43.2838H75.7V44.4303H71.9844Z" fill="white" style="fill:white;fill-opacity:1;"/>
<path d="M63.7188 44.4303L65.8444 38.5723H67.3591L69.4931 44.4303H68.0955L67.6855 43.2168H65.5096L65.0912 44.4303H63.7188ZM65.8778 42.1624H67.3256L66.5892 40.0284L65.8778 42.1624Z" fill="white" style="fill:white;fill-opacity:1;"/>
<path d="M95.2094 28.1267C94.3417 27.1065 94.46 25.583 95.4755 24.722C96.491 23.8585 98.0172 23.9882 98.8843 25.0051C99.7527 26.0279 99.635 27.5521 98.6188 28.4182C97.602 29.2759 96.0784 29.1482 95.2094 28.1267Z" fill="#1280E5" style="fill:#1280E5;fill:color(display-p3 0.0719 0.5008 0.8966);fill-opacity:1;"/>
<path d="M112.194 18.2834C111.326 17.2632 111.444 15.7397 112.46 14.8787C113.475 14.0152 115.002 14.1449 115.869 15.1619C116.737 16.1846 116.619 17.7088 115.603 18.5749C114.586 19.4327 113.063 19.3049 112.194 18.2834Z" fill="white" style="fill:white;fill-opacity:1;"/>
</svg>
